<svg version="1.1" xmlns="http://www.w3.org/2000/svg" xmlns:xlink="http://www.w3.org/1999/xlink" width="448px" height="512px" viewBox="0,0,224,256"><g fill="#ffffff" fill-rule="nonzero" stroke="none" stroke-width="1" stroke-linecap="butt" stroke-linejoin="miter" stroke-miterlimit="10" stroke-dasharray="" stroke-dashoffset="0" font-family="none" font-weight="none" font-size="none" text-anchor="none" style="mix-blend-mode: normal"><g transform="scale(0.5,0.5)"><path d="M448,96c0,-35.3 -28.7,-64 -64,-64h-320c-35.3,0 -64,28.7 -64,64v320c0,35.3 28.7,64 64,64h320c35.3,0 64,-28.7 64,-64zM256,160c0,17.7 -14.3,32 -32,32h-96c-17.7,0 -32,-14.3 -32,-32c0,-17.7 14.3,-32 32,-32h96c17.7,0 32,14.3 32,32zM320,224c17.7,0 32,14.3 32,32c0,17.7 -14.3,32 -32,32h-192c-17.7,0 -32,-14.3 -32,-32c0,-17.7 14.3,-32 32,-32zM192,352c0,17.7 -14.3,32 -32,32h-32c-17.7,0 -32,-14.3 -32,-32c0,-17.7 14.3,-32 32,-32h32c17.7,0 32,14.3 32,32z"></path></g></g></svg>