<svg version="1.1" xmlns="http://www.w3.org/2000/svg" xmlns:xlink="http://www.w3.org/1999/xlink" width="512px" height="512px" viewBox="0,0,256,256"><g fill="#ffffff" fill-rule="nonzero" stroke="none" stroke-width="1" stroke-linecap="butt" stroke-linejoin="miter" stroke-miterlimit="10" stroke-dasharray="" stroke-dashoffset="0" font-family="none" font-weight="none" font-size="none" text-anchor="none" style="mix-blend-mode: normal"><g transform="scale(0.5,0.5)"><path d="M144,16c0,-8.8 -7.2,-16 -16,-16c-8.8,0 -16,7.2 -16,16v16h-16c-8.8,0 -16,7.2 -16,16c0,8.8 7.2,16 16,16h16v32h-51.8c-11.1,0 -20.2,9.1 -20.2,20.2c0,2.5 0.5,4.9 1.3,7.3l32.5,84.5h-1.8c-13.3,0 -24,10.7 -24,24c0,13.3 10.7,24 24,24h4l-16,128h136l-16,-128h4c13.3,0 24,-10.7 24,-24c0,-13.3 -10.7,-24 -24,-24h-1.8l32.5,-84.5c0.9,-2.3 1.3,-4.8 1.3,-7.3c0,-11.2 -9.1,-20.2 -20.2,-20.2h-51.8v-32h16c8.8,0 16,-7.2 16,-16c0,-8.8 -7.2,-16 -16,-16h-16zM48,416l-43.2,57.6c-3.1,4.2 -4.8,9.2 -4.8,14.4c0,13.3 10.7,24 24,24h208c13.3,0 24,-10.7 24,-24c0,-5.2 -1.7,-10.2 -4.8,-14.4l-43.2,-57.6zM336,416l-43.2,57.6c-3.1,4.2 -4.8,9.2 -4.8,14.4c0,13.3 10.7,24 24,24h176c13.3,0 24,-10.7 24,-24c0,-5.2 -1.7,-10.2 -4.8,-14.4l-43.2,-57.6zM304,208v51.9c0,7.8 2.8,15.3 8,21.1l27.2,31l-2.2,72h125.5l-3.3,-72l28.3,-30.8c5.4,-5.9 8.5,-13.6 8.5,-21.7v-51.5c0,-8.8 -7.2,-16 -16,-16h-16c-8.8,0 -16,7.2 -16,16v16h-24v-16c0,-8.8 -7.2,-16 -16,-16h-16c-8.8,0 -16,7.2 -16,16v16h-24v-16c0,-8.8 -7.2,-16 -16,-16h-16c-8.8,0 -16,7.2 -16,16zM384,304c0,-8.8 7.2,-16 16,-16c8.8,0 16,7.2 16,16v32h-32z"></path></g></g></svg>