<svg version="1.1" xmlns="http://www.w3.org/2000/svg" xmlns:xlink="http://www.w3.org/1999/xlink" width="512px" height="512px" viewBox="0,0,256,256"><g fill="#ffffff" fill-rule="nonzero" stroke="none" stroke-width="1" stroke-linecap="butt" stroke-linejoin="miter" stroke-miterlimit="10" stroke-dasharray="" stroke-dashoffset="0" font-family="none" font-weight="none" font-size="none" text-anchor="none" style="mix-blend-mode: normal"><g transform="scale(0.5,0.5)"><path d="M448,160h-128v-32h128zM48,64c-26.5,0 -48,21.5 -48,48v64c0,26.5 21.5,48 48,48h416c26.5,0 48,-21.5 48,-48v-64c0,-26.5 -21.5,-48 -48,-48zM448,352v32h-256v-32zM48,288c-26.5,0 -48,21.5 -48,48v64c0,26.5 21.5,48 48,48h416c26.5,0 48,-21.5 48,-48v-64c0,-26.5 -21.5,-48 -48,-48z"></path></g></g></svg>