<svg version="1.1" xmlns="http://www.w3.org/2000/svg" xmlns:xlink="http://www.w3.org/1999/xlink" width="640px" height="512px" viewBox="0,0,256,204.8"><g fill="#ffffff" fill-rule="nonzero" stroke="none" stroke-width="1" stroke-linecap="butt" stroke-linejoin="miter" stroke-miterlimit="10" stroke-dasharray="" stroke-dashoffset="0" font-family="none" font-weight="none" font-size="none" text-anchor="none" style="mix-blend-mode: normal"><g transform="translate(0,0) scale(0.4,0.4)"><path d="M32,96c0,-35.3 28.7,-64 64,-64h224c23.7,0 44.4,12.9 55.4,32h51.8c25.3,0 48.2,14.9 58.5,38l52.8,118.8c0.5,1.1 0.9,2.1 1.3,3.2h4.2c35.3,0 64,28.7 64,64v32c17.7,0 32,14.3 32,32c0,17.7 -14.3,32 -32,32h-32c0,53 -43,96 -96,96c-53,0 -96,-43 -96,-96h-128c0,53 -43,96 -96,96c-53,0 -96,-43 -96,-96h-32c-17.7,0 -32,-14.3 -32,-32c0,-17.7 14.3,-32 32,-32v-32c-17.7,0 -32,-14.3 -32,-32v-96c0,-17.7 14.3,-32 32,-32zM384,224h85.9l-42.7,-96h-43.2zM160,432c26.50967,0 48,-21.49033 48,-48c0,-26.50967 -21.49033,-48 -48,-48c-26.50967,0 -48,21.49033 -48,48c0,26.50967 21.49033,48 48,48zM528,384c0,-26.50967 -21.49033,-48 -48,-48c-26.50967,0 -48,21.49033 -48,48c0,26.50967 21.49033,48 48,48c26.50967,0 48,-21.49033 48,-48z"></path></g></g></svg>